# xmcd
#
# Track frame offsets: 
#        150
#        10633
#        25553
#        37168
#        49478
#        62238
#        74140
#        88720
#        103823
#        119599
#        134719
#        150192
#        166672
#        179219
#        194374
#        210129
#        224077
#        236699
#        250484
#        262322
#
# Disc length: 3637 seconds
#
# Revision: 0
# Processed by: cddbd v1.5.2PL0 Copyright (c) Steve Scherf et al.
# Submitted via: ExactAudioCopy v0.99pb5
#
DISCID=370e3314
DTITLE=Edwin Starr  - 20 Greatest Motown Hits  
DYEAR=1900
DGENRE=
TTITLE0=Stop Her On Sight (S.O.S.)
TTITLE1=25 Miles
TTITLE2=Headline News
TTITLE3=Agent Double-O Soul
TTITLE4=Back Street
TTITLE5=I Want My Baby Back
TTITLE6=Funky Music Sho Nuff Turns Me On
TTITLE7=Soul Master
TTITLE8=You've Got My Soul On Fire
TTITLE9=Who's Right Or Wrong
TTITLE10=War
TTITLE11=Stop The War Now
TTITLE12=Way Over There
TTITLE13=Take Me Clear From Here
TTITLE14=Cloud Nine
TTITLE15=There You Go
TTITLE16=Gonna Keep On Tryin' Till I Win Your Love
TTITLE17=Time
TTITLE18=My Weakness Is You
TTITLE19=Harlem
EXTD=
EXTT0=
EXTT1=
EXTT2=
EXTT3=
EXTT4=
EXTT5=
EXTT6=
EXTT7=
EXTT8=
EXTT9=
EXTT10=
EXTT11=
EXTT12=
EXTT13=
EXTT14=
EXTT15=
EXTT16=
EXTT17=
EXTT18=
EXTT19=
PLAYORDER=
